# xmcd
#
# Track frame offsets:
#	150
#	14092
#	31337
#	44292
#	58305
#	72695
#	88135
#	95905
#	114105
#	125570
#	148320
#	158210
#	170270
#	182590
#	195917
#	211802
#
# Disc length: 3010 seconds
#
# Revision: 2
# Processed by: cddbd v1.5.1PL2 Copyright (c) Steve Scherf et al.
# Submitted via: audiograbber 1.83.01
#
DISCID=eb0bc010
DTITLE=Various Artist - Deutsche Country and Trucker Weihnacht CD 1
DYEAR=1991
DGENRE=Country
TTITLE0=Jonny Hill - Süßer die Glocken nie klingen
TTITLE1=Hanna and Daana - Draußen fällt leise der Schnee
TTITLE2=Frank Baum and Country Green - Advent - Stunde der Stille
TTITLE3=Greyhounds - Das Weihnachtsfest
TTITLE4=Mike Tauer - Der helle Stern
TTITLE5=Tennessee - Weihnachtsfrau
TTITLE6=Jonny Hill - Leise rieselt der Schnee
TTITLE7=Kactus - Der Weihnachtsmann im Erzgebirge
TTITLE8=Tom Astor und der Fredeburger Kinderchor - Alle Jahre wieder
TTITLE9=Jonny Hill - Gibt es einen Weihnachtsmann
TTITLE10=Truck Stop - Der Weihnachtsmann kommt heute in die Stadt
TTITLE11=Nashville Music Company - Die anderen feiern gemeinsam Zuhaus
TTITLE12=Mike Hermann and Booze Company - Früher kam der Weihnachtsmann
TTITLE13=Jonny Hill - Oh du fröhliche
TTITLE14=Linda Feller - Winterzeit - Kinderzeit
TTITLE15=Frank Baum and Country Green - Schöner Fremder laß mich nicht allein
EXTD=
EXTT0=
EXTT1=
EXTT2=
EXTT3=
EXTT4=
EXTT5=
EXTT6=
EXTT7=
EXTT8=
EXTT9=
EXTT10=
EXTT11=
EXTT12=
EXTT13=
EXTT14=
EXTT15=
PLAYORDER=
